<svg width="51" height="51" viewBox="0 0 51 51" fill="none" xmlns="http://www.w3.org/2000/svg">
<path d="M24.3944 4.85959C24.4871 4.67217 24.6305 4.5144 24.8081 4.4041C24.9858 4.2938 25.1907 4.23535 25.3999 4.23535C25.609 4.23535 25.814 4.2938 25.9916 4.4041C26.1693 4.5144 26.3126 4.67217 26.4054 4.85959L31.2952 14.7642C31.6173 15.4161 32.0928 15.9801 32.6809 16.4078C33.269 16.8355 33.9521 17.1141 34.6715 17.2197L45.607 18.82C45.8142 18.85 46.0089 18.9374 46.169 19.0723C46.3291 19.2072 46.4483 19.3842 46.513 19.5833C46.5778 19.7824 46.5855 19.9957 46.5354 20.199C46.4853 20.4022 46.3792 20.5874 46.2293 20.7336L38.3209 28.4346C37.7994 28.9428 37.4091 29.5702 37.1838 30.2627C36.9585 30.9552 36.9049 31.6921 37.0275 32.4099L38.8946 43.2904C38.9311 43.4975 38.9088 43.7107 38.83 43.9057C38.7512 44.1007 38.6192 44.2696 38.4491 44.3932C38.2789 44.5168 38.0774 44.5901 37.8676 44.6047C37.6578 44.6193 37.4481 44.5746 37.2625 44.4758L27.4871 39.3362C26.8429 38.998 26.1263 38.8212 25.3988 38.8212C24.6713 38.8212 23.9547 38.998 23.3106 39.3362L13.5372 44.4758C13.3517 44.574 13.1422 44.6182 12.9328 44.6033C12.7233 44.5885 12.5223 44.5151 12.3524 44.3916C12.1826 44.2681 12.0509 44.0994 11.9722 43.9047C11.8935 43.71 11.871 43.4972 11.9073 43.2904L13.7722 32.4121C13.8954 31.6939 13.842 30.9565 13.6167 30.2636C13.3914 29.5706 13.0009 28.9429 12.4788 28.4346L4.57041 20.7357C4.41925 20.5897 4.31214 20.4042 4.26127 20.2003C4.2104 19.9964 4.21782 19.7823 4.28269 19.5824C4.34755 19.3826 4.46725 19.2049 4.62815 19.0697C4.78904 18.9346 4.98467 18.8473 5.19275 18.8179L16.1261 17.2197C16.8464 17.1149 17.5304 16.8367 18.1193 16.4089C18.7081 15.9812 19.1843 15.4167 19.5067 14.7642L24.3944 4.85959Z" stroke="#00F5FF" stroke-width="4.23363" stroke-linecap="round" stroke-linejoin="round"/>
</svg>
