<svg width="51" height="51" viewBox="0 0 51 51" fill="none" xmlns="http://www.w3.org/2000/svg">
<path d="M29.6342 38.1032V12.7014C29.6342 11.5786 29.1882 10.5017 28.3942 9.70777C27.6002 8.91382 26.5234 8.46777 25.4006 8.46777H8.46605C7.34322 8.46777 6.26638 8.91382 5.47242 9.70777C4.67846 10.5017 4.23242 11.5786 4.23242 12.7014V35.9864C4.23242 36.5478 4.45544 37.0862 4.85242 37.4832C5.2494 37.8802 5.78782 38.1032 6.34924 38.1032H10.5829" stroke="#00F5FF" stroke-width="4.23363" stroke-linecap="round" stroke-linejoin="round"/>
<path d="M31.7519 38.104H19.051" stroke="#00F5FF" stroke-width="4.23363" stroke-linecap="round" stroke-linejoin="round"/>
<path d="M40.2185 38.1027H44.4521C45.0135 38.1027 45.5519 37.8797 45.9489 37.4827C46.3459 37.0857 46.5689 36.5473 46.5689 35.9859V28.2595C46.5681 27.7791 46.4038 27.3133 46.1032 26.9386L38.7367 17.7305C38.5387 17.4826 38.2876 17.2823 38.0018 17.1446C37.716 17.0068 37.4029 16.935 37.0856 16.9346H29.6344" stroke="#00F5FF" stroke-width="4.23363" stroke-linecap="round" stroke-linejoin="round"/>
<path d="M35.9866 42.3371C38.3247 42.3371 40.2202 40.4417 40.2202 38.1035C40.2202 35.7653 38.3247 33.8699 35.9866 33.8699C33.6484 33.8699 31.7529 35.7653 31.7529 38.1035C31.7529 40.4417 33.6484 42.3371 35.9866 42.3371Z" stroke="#00F5FF" stroke-width="4.23363" stroke-linecap="round" stroke-linejoin="round"/>
<path d="M14.817 42.3371C17.1552 42.3371 19.0506 40.4417 19.0506 38.1035C19.0506 35.7653 17.1552 33.8699 14.817 33.8699C12.4788 33.8699 10.5834 35.7653 10.5834 38.1035C10.5834 40.4417 12.4788 42.3371 14.817 42.3371Z" stroke="#00F5FF" stroke-width="4.23363" stroke-linecap="round" stroke-linejoin="round"/>
</svg>
