<svg width="51" height="51" viewBox="0 0 51 51" fill="none" xmlns="http://www.w3.org/2000/svg">
<path d="M42.3371 27.5203C42.3371 38.1044 34.9282 43.3964 26.1223 46.4658C25.6611 46.6221 25.1602 46.6146 24.704 46.4446C15.8769 43.3964 8.46802 38.1044 8.46802 27.5203V12.7026C8.46802 12.1412 8.69104 11.6028 9.08802 11.2058C9.485 10.8088 10.0234 10.5858 10.5848 10.5858C14.8185 10.5858 20.1105 8.04559 23.7938 4.82803C24.2422 4.44489 24.8127 4.23438 25.4025 4.23438C25.9924 4.23438 26.5629 4.44489 27.0113 4.82803C30.7157 8.06676 35.9866 10.5858 40.2202 10.5858C40.7817 10.5858 41.3201 10.8088 41.7171 11.2058C42.114 11.6028 42.3371 12.1412 42.3371 12.7026V27.5203Z" stroke="#00F5FF" stroke-width="4.23363" stroke-linecap="round" stroke-linejoin="round"/>
</svg>
